<svg width="1200" height="760" viewBox="0 0 1200 760" fill="none" xmlns="http://www.w3.org/2000/svg">
  <rect width="1200" height="760" fill="#09090B"/>
  <rect x="92" y="92" width="1016" height="576" rx="28" fill="#111113" stroke="#F0ABFC" stroke-opacity=".28"/>
  <rect x="148" y="148" width="256" height="456" rx="22" fill="#18181B"/>
  <rect x="452" y="148" width="600" height="120" rx="22" fill="#18181B"/>
  <rect x="452" y="312" width="170" height="292" rx="22" fill="#18181B"/>
  <rect x="666" y="312" width="170" height="292" rx="22" fill="#18181B"/>
  <rect x="880" y="312" width="172" height="292" rx="22" fill="#18181B"/>
  <path d="m276 204 24 52 57 7-42 39 11 56-50-28-50 28 11-56-42-39 57-7 24-52Z" fill="#F0ABFC"/>
  <rect x="192" y="428" width="168" height="18" rx="9" fill="#FAFAFA" fill-opacity=".58"/>
  <rect x="192" y="472" width="112" height="18" rx="9" fill="#FAFAFA" fill-opacity=".26"/>
  <rect x="500" y="194" width="330" height="20" rx="10" fill="#FAFAFA" fill-opacity=".62"/>
  <rect x="500" y="360" width="72" height="72" rx="16" fill="#67E8F9"/>
  <rect x="714" y="360" width="72" height="72" rx="16" fill="#F0ABFC"/>
  <rect x="928" y="360" width="72" height="72" rx="16" fill="#FDE68A"/>
</svg>
