<svg width="1200" height="760" viewBox="0 0 1200 760" fill="none" xmlns="http://www.w3.org/2000/svg">
  <rect width="1200" height="760" fill="#0A0A0A"/>
  <rect x="82" y="82" width="1036" height="596" rx="28" fill="#111113" stroke="#A7F3D0" stroke-opacity=".28"/>
  <rect x="132" y="132" width="290" height="496" rx="18" fill="#18181B"/>
  <rect x="462" y="132" width="606" height="108" rx="18" fill="#18181B"/>
  <rect x="462" y="278" width="606" height="350" rx="18" fill="#18181B"/>
  <path d="M510 520h70l52-160 65 210 76-260 61 156h88l49-93h62" stroke="#6EE7B7" stroke-width="12" stroke-linecap="round" stroke-linejoin="round"/>
  <circle cx="238" cy="238" r="58" fill="#22D3EE" fill-opacity=".2"/>
  <circle cx="238" cy="238" r="29" fill="#67E8F9"/>
  <rect x="186" y="342" width="176" height="16" rx="8" fill="#FAFAFA" fill-opacity=".72"/>
  <rect x="186" y="388" width="118" height="16" rx="8" fill="#FAFAFA" fill-opacity=".34"/>
  <rect x="510" y="170" width="156" height="18" rx="9" fill="#FAFAFA" fill-opacity=".65"/>
  <rect x="510" y="205" width="426" height="14" rx="7" fill="#FAFAFA" fill-opacity=".22"/>
</svg>
