<svg width="1200" height="760" viewBox="0 0 1200 760" fill="none" xmlns="http://www.w3.org/2000/svg">
  <rect width="1200" height="760" fill="#0A0A0A"/>
  <rect x="84" y="86" width="1032" height="588" rx="28" fill="#111113" stroke="#67E8F9" stroke-opacity=".26"/>
  <rect x="132" y="138" width="936" height="88" rx="18" fill="#18181B"/>
  <rect x="132" y="270" width="278" height="352" rx="18" fill="#18181B"/>
  <rect x="454" y="270" width="278" height="352" rx="18" fill="#18181B"/>
  <rect x="776" y="270" width="292" height="352" rx="18" fill="#18181B"/>
  <path d="M190 522c45-126 92-110 139-54" stroke="#FDE68A" stroke-width="12" stroke-linecap="round"/>
  <path d="M512 522c42-174 91-202 158-62" stroke="#67E8F9" stroke-width="12" stroke-linecap="round"/>
  <path d="M834 522c41-84 84-80 122-18 28 45 49 46 72-9" stroke="#FDA4AF" stroke-width="12" stroke-linecap="round"/>
  <rect x="184" y="174" width="180" height="16" rx="8" fill="#FAFAFA" fill-opacity=".62"/>
  <rect x="444" y="174" width="392" height="16" rx="8" fill="#FAFAFA" fill-opacity=".26"/>
  <circle cx="252" cy="360" r="42" fill="#FDE68A" fill-opacity=".84"/>
  <circle cx="574" cy="360" r="42" fill="#67E8F9" fill-opacity=".84"/>
  <circle cx="922" cy="360" r="42" fill="#FDA4AF" fill-opacity=".84"/>
</svg>
